<?xml version="1.0" encoding="utf-8"?>
<!-- Generator: Adobe Illustrator 27.2.0, SVG Export Plug-In . SVG Version: 6.00 Build 0)  -->
<svg version="1.1" id="Layer_1" xmlns="http://www.w3.org/2000/svg" xmlns:xlink="http://www.w3.org/1999/xlink" x="0px" y="0px"
	 viewBox="0 0 1600 750" style="enable-background:new 0 0 1600 750;" xml:space="preserve">
<style type="text/css">
	.st0{fill:#CCEAEE;}
	.st1{opacity:0.5;}
	.st2{fill:#12694A;}
	.st3{fill:#31A369;}
	.st4{fill:#FFFFFF;}
	.st5{fill:#F48688;}
	.st6{fill:#067DBA;}
	.st7{fill:#0067A3;}
	.st8{fill:#059DD8;}
</style>
<rect x="-1.1" y="1.7" class="st0" width="1601.5" height="749.3"/>
<g>
	<g class="st1">
		
			<image style="overflow:visible;" width="4032" height="3263" xlink:href="4C1F9ADC0FD75E71.png"  transform="matrix(0.24 0 0 0.24 311.04 -19.2)">
		</image>
	</g>
	<g>
		<path class="st2" d="M1252.8,669.7V58.5c0-3.9-1-7.6-2.8-10.7c-1.3-2.4-9.6-12.5-12.8-14.6c-3.4-2.2-7.5-3.5-11.9-3.5H384.6
			c-12.1,0-22,9.8-22,22v166.1v445.1c0,5.7,1.2,11.1,3.2,16c2.1,4.9,14,19.9,17.3,22.7c7.1,5.9,16.2,9.4,26.2,9.4h802.3
			C1234.4,710.9,1252.8,692.5,1252.8,669.7z"/>
		<path class="st3" d="M362.6,217.7V51.6c0-12.1,9.8-22,22-22h840.8c12.1,0,22,9.8,22,22v611.2c0,22.8-18.5,41.2-41.2,41.2H403.8
			c-22.8,0-41.2-18.5-41.2-41.2V217.7z"/>
		<path class="st0" d="M1234.3,667V481.2V73.5V54.3c0-1.9-0.6-3.6-1.7-4.9c-1-1.4-6.1-7.2-8.1-8.3c-1.2-0.7-2.7-1.1-4.2-1.1H389.1
			c-4.6,0-8.2,3.7-8.2,8.2v19.2V475v185.9c0,4,0.8,7.8,2.4,11.2c0.6,1.3,1.3,2.6,2.1,3.8c1.6,2.5,9.3,10.8,11.4,12.5
			c4.7,3.9,10.8,6.2,17.4,6.2h792.7C1222,694.5,1234.3,682.2,1234.3,667z M463.2,96.6V67.5c0-4.6,3.7-8.2,8.2-8.2h19.1
			c0.8,0,1.6,0.2,2.4,0.4c0.1,0.5,0.2,1.1,0.2,1.7v29.1c0,4.6-3.7,8.2-8.2,8.2h-19.1c-0.8,0-1.6-0.2-2.4-0.4
			C463.2,97.8,463.2,97.2,463.2,96.6z M1152,61.3v29.1c0,4.6-3.7,8.2-8.2,8.2h-19.1c-0.8,0-1.6-0.2-2.4-0.4
			c-0.1-0.5-0.2-1.1-0.2-1.7V67.5c0-4.6,3.7-8.2,8.2-8.2h19.1c0.8,0,1.6,0.2,2.4,0.4C1151.9,60.2,1152,60.7,1152,61.3z M575.5,98.7
			c-0.8,0-1.6-0.2-2.4-0.4c-0.1-0.5-0.2-1.1-0.2-1.7V67.5c0-4.6,3.7-8.2,8.2-8.2h19.1c0.8,0,1.6,0.2,2.4,0.4
			c0.1,0.5,0.2,1.1,0.2,1.7v29.1c0,4.6-3.7,8.2-8.2,8.2H575.5z M685.4,98.7c-0.8,0-1.6-0.2-2.4-0.4c-0.1-0.5-0.2-1.1-0.2-1.7V67.5
			c0-4.6,3.7-8.2,8.2-8.2h19.1c0.8,0,1.6,0.2,2.4,0.4c0.1,0.5,0.2,1.1,0.2,1.7v29.1c0,4.6-3.7,8.2-8.2,8.2H685.4z M795.2,98.7
			c-0.8,0-1.6-0.2-2.4-0.4c-0.1-0.5-0.2-1.1-0.2-1.7V67.5c0-4.6,3.7-8.2,8.2-8.2H820c0.8,0,1.6,0.2,2.4,0.4c0.1,0.5,0.2,1.1,0.2,1.7
			v29.1c0,4.6-3.7,8.2-8.2,8.2H795.2z M905,98.7c-0.8,0-1.6-0.2-2.4-0.4c-0.1-0.5-0.2-1.1-0.2-1.7V67.5c0-4.6,3.7-8.2,8.2-8.2h19.1
			c0.8,0,1.6,0.2,2.4,0.4c0.1,0.5,0.2,1.1,0.2,1.7v29.1c0,4.6-3.7,8.2-8.2,8.2H905z M1014.9,98.7c-0.8,0-1.6-0.2-2.4-0.4
			c-0.1-0.5-0.2-1.1-0.2-1.7V67.5c0-4.6,3.7-8.2,8.2-8.2h19.1c0.8,0,1.6,0.2,2.4,0.4c0.1,0.5,0.2,1.1,0.2,1.7v29.1
			c0,4.6-3.7,8.2-8.2,8.2H1014.9z"/>
		<g>
			<g>
				<path class="st4" d="M1228.6,660.8V475V67.3V48.1c0-4.6-3.7-8.2-8.2-8.2H389.1c-4.6,0-8.2,3.7-8.2,8.2v19.2V475v185.9
					c0,15.2,12.3,27.5,27.5,27.5h792.7C1216.3,688.3,1228.6,676,1228.6,660.8z M465.7,98.7c-4.6,0-8.2-3.7-8.2-8.2V61.3
					c0-4.6,3.7-8.2,8.2-8.2h19.1c4.6,0,8.2,3.7,8.2,8.2v29.1c0,4.6-3.7,8.2-8.2,8.2H465.7z M575.5,98.7c-4.6,0-8.2-3.7-8.2-8.2V61.3
					c0-4.6,3.7-8.2,8.2-8.2h19.1c4.6,0,8.2,3.7,8.2,8.2v29.1c0,4.6-3.7,8.2-8.2,8.2H575.5z M685.4,98.7c-4.6,0-8.2-3.7-8.2-8.2V61.3
					c0-4.6,3.7-8.2,8.2-8.2h19.1c4.6,0,8.2,3.7,8.2,8.2v29.1c0,4.6-3.7,8.2-8.2,8.2H685.4z M795.2,98.7c-4.6,0-8.2-3.7-8.2-8.2V61.3
					c0-4.6,3.7-8.2,8.2-8.2h19.1c4.6,0,8.2,3.7,8.2,8.2v29.1c0,4.6-3.7,8.2-8.2,8.2H795.2z M905,98.7c-4.6,0-8.2-3.7-8.2-8.2V61.3
					c0-4.6,3.7-8.2,8.2-8.2h19.1c4.6,0,8.2,3.7,8.2,8.2v29.1c0,4.6-3.7,8.2-8.2,8.2H905z M1014.9,98.7c-4.6,0-8.2-3.7-8.2-8.2V61.3
					c0-4.6,3.7-8.2,8.2-8.2h19.1c4.6,0,8.2,3.7,8.2,8.2v29.1c0,4.6-3.7,8.2-8.2,8.2H1014.9z M1124.7,98.7c-4.6,0-8.2-3.7-8.2-8.2
					V61.3c0-4.6,3.7-8.2,8.2-8.2h19.1c4.6,0,8.2,3.7,8.2,8.2v29.1c0,4.6-3.7,8.2-8.2,8.2H1124.7z"/>
			</g>
			<g>
				<g>
					<rect x="1142.7" y="112.2" class="st0" width="1.4" height="576.1"/>
				</g>
				<g>
					<rect x="1114.9" y="112.2" class="st0" width="1.4" height="576.1"/>
				</g>
				<g>
					<rect x="1087.1" y="112.2" class="st0" width="1.4" height="576.1"/>
				</g>
				<g>
					<rect x="1059.3" y="112.2" class="st0" width="1.4" height="576.1"/>
				</g>
				<g>
					<rect x="1031.5" y="112.2" class="st0" width="1.4" height="576.1"/>
				</g>
				<g>
					<rect x="1003.7" y="112.2" class="st0" width="1.4" height="576.1"/>
				</g>
				<g>
					<rect x="975.9" y="112.2" class="st0" width="1.4" height="576.1"/>
				</g>
				<g>
					<rect x="948.1" y="112.2" class="st0" width="1.4" height="576.1"/>
				</g>
				<g>
					<rect x="920.3" y="112.2" class="st0" width="1.4" height="576.1"/>
				</g>
				<g>
					<rect x="892.5" y="112.2" class="st0" width="1.4" height="576.1"/>
				</g>
				<g>
					<rect x="864.7" y="112.2" class="st0" width="1.4" height="576.1"/>
				</g>
				<g>
					<rect x="836.9" y="112.2" class="st0" width="1.4" height="576.1"/>
				</g>
				<g>
					<rect x="809.1" y="112.2" class="st0" width="1.4" height="576.1"/>
				</g>
				<g>
					<rect x="781.3" y="112.2" class="st0" width="1.4" height="576.1"/>
				</g>
				<g>
					<rect x="753.5" y="112.2" class="st0" width="1.4" height="576.1"/>
				</g>
				<g>
					<rect x="725.7" y="112.2" class="st0" width="1.4" height="576.1"/>
				</g>
				<g>
					<rect x="697.9" y="112.2" class="st0" width="1.4" height="576.1"/>
				</g>
				<g>
					<rect x="670.1" y="112.2" class="st0" width="1.4" height="576.1"/>
				</g>
				<g>
					<rect x="642.2" y="112.2" class="st0" width="1.4" height="576.1"/>
				</g>
				<g>
					<rect x="614.4" y="112.2" class="st0" width="1.4" height="576.1"/>
				</g>
				<g>
					<rect x="586.6" y="112.2" class="st0" width="1.4" height="576.1"/>
				</g>
				<g>
					<rect x="558.8" y="112.2" class="st0" width="1.4" height="576.1"/>
				</g>
				<g>
					<rect x="531" y="112.2" class="st0" width="1.4" height="576.1"/>
				</g>
				<g>
					<rect x="503.2" y="112.2" class="st0" width="1.4" height="576.1"/>
				</g>
				<g>
					<rect x="475.4" y="112.2" class="st0" width="1.4" height="576.1"/>
				</g>
				<g>
					<rect x="447.6" y="112.2" class="st0" width="1.4" height="576.1"/>
				</g>
				<g>
					<rect x="419.8" y="112.2" class="st0" width="1.4" height="576.1"/>
				</g>
			</g>
			<g>
				<rect x="380.9" y="133.5" class="st5" width="847.7" height="2.7"/>
			</g>
			<g>
				<path class="st0" d="M1152,90.5V61.3c0-3.3-2-6.2-4.8-7.5c0.2,0.7,0.4,1.5,0.4,2.3v29.1c0,4.6-3.7,8.2-8.2,8.2h-19.1
					c-1.2,0-2.4-0.3-3.4-0.8c1,3.4,4.1,5.9,7.9,5.9h19.1C1148.3,98.7,1152,95,1152,90.5z"/>
				<path class="st0" d="M1042.2,90.5V61.3c0-3.3-2-6.2-4.8-7.5c0.2,0.7,0.4,1.5,0.4,2.3v29.1c0,4.6-3.7,8.2-8.2,8.2h-19.1
					c-1.2,0-2.4-0.3-3.4-0.8c1,3.4,4.1,5.9,7.9,5.9h19.1C1038.5,98.7,1042.2,95,1042.2,90.5z"/>
				<path class="st0" d="M932.3,90.5V61.3c0-3.3-2-6.2-4.8-7.5c0.2,0.7,0.4,1.5,0.4,2.3v29.1c0,4.6-3.7,8.2-8.2,8.2h-19.1
					c-1.2,0-2.4-0.3-3.4-0.8c1,3.4,4.1,5.9,7.9,5.9h19.1C928.6,98.7,932.3,95,932.3,90.5z"/>
				<path class="st0" d="M822.5,90.5V61.3c0-3.3-2-6.2-4.8-7.5c0.2,0.7,0.4,1.5,0.4,2.3v29.1c0,4.6-3.7,8.2-8.2,8.2h-19.1
					c-1.2,0-2.4-0.3-3.4-0.8c1,3.4,4.1,5.9,7.9,5.9h19.1C818.8,98.7,822.5,95,822.5,90.5z"/>
				<path class="st0" d="M712.7,90.5V61.3c0-3.3-2-6.2-4.8-7.5c0.2,0.7,0.4,1.5,0.4,2.3v29.1c0,4.6-3.7,8.2-8.2,8.2h-19.1
					c-1.2,0-2.4-0.3-3.4-0.8c1,3.4,4.1,5.9,7.9,5.9h19.1C709,98.7,712.7,95,712.7,90.5z"/>
				<path class="st0" d="M602.8,90.5V61.3c0-3.3-2-6.2-4.8-7.5c0.2,0.7,0.4,1.5,0.4,2.3v29.1c0,4.6-3.7,8.2-8.2,8.2h-19.1
					c-1.2,0-2.4-0.3-3.4-0.8c1,3.4,4.1,5.9,7.9,5.9h19.1C599.1,98.7,602.8,95,602.8,90.5z"/>
				<path class="st0" d="M493,90.5V61.3c0-3.3-2-6.2-4.8-7.5c0.2,0.7,0.4,1.5,0.4,2.3v29.1c0,4.6-3.7,8.2-8.2,8.2h-19.1
					c-1.2,0-2.4-0.3-3.4-0.8c1,3.4,4.1,5.9,7.9,5.9h19.1C489.3,98.7,493,95,493,90.5z"/>
			</g>
		</g>
		<g>
			<g>
				<path class="st6" d="M1132.7,86c-4.6,0-8.2-3.7-8.2-8.2V12.5c0-4.6,3.7-8.2,8.2-8.2h1.8c4.6,0,8.2,3.7,8.2,8.2v65.3
					c0,4.6-3.7,8.2-8.2,8.2H1132.7z"/>
				<path class="st7" d="M1124.4,77.8c0,4.6,3.7,8.2,8.2,8.2h1.8c4.6,0,8.2-3.7,8.2-8.2V12.5c0,0-6.1,44.5-7.5,55.2
					C1133.9,78.4,1124.4,77.8,1124.4,77.8z"/>
				<g>
					<path class="st8" d="M1136.3,12.1c0-2.4-3.8-2.4-3.8,0C1132.5,14.6,1136.3,14.6,1136.3,12.1z"/>
					<path class="st8" d="M1133.2,16.3c0-4-6.2-4-6.2,0C1127.1,20.3,1133.2,20.3,1133.2,16.3z"/>
				</g>
			</g>
			<g>
				<path class="st6" d="M1023.7,86c-4.6,0-8.2-3.7-8.2-8.2V12.5c0-4.6,3.7-8.2,8.2-8.2h1.8c4.6,0,8.2,3.7,8.2,8.2v65.3
					c0,4.6-3.7,8.2-8.2,8.2H1023.7z"/>
				<path class="st7" d="M1015.5,77.8c0,4.6,3.7,8.2,8.2,8.2h1.8c4.6,0,8.2-3.7,8.2-8.2V12.5c0,0-6.1,44.5-7.5,55.2
					C1024.9,78.4,1015.5,77.8,1015.5,77.8z"/>
				<g>
					<path class="st8" d="M1027.3,12.1c0-2.4-3.8-2.4-3.8,0C1023.5,14.6,1027.3,14.6,1027.3,12.1z"/>
					<path class="st8" d="M1024.3,16.3c0-4-6.2-4-6.2,0C1018.1,20.3,1024.3,20.3,1024.3,16.3z"/>
				</g>
			</g>
			<g>
				<path class="st6" d="M914.7,86c-4.6,0-8.2-3.7-8.2-8.2V12.5c0-4.6,3.7-8.2,8.2-8.2h1.8c4.6,0,8.2,3.7,8.2,8.2v65.3
					c0,4.6-3.7,8.2-8.2,8.2H914.7z"/>
				<path class="st7" d="M906.5,77.8c0,4.6,3.7,8.2,8.2,8.2h1.8c4.6,0,8.2-3.7,8.2-8.2V12.5c0,0-6.1,44.5-7.5,55.2
					C915.9,78.4,906.5,77.8,906.5,77.8z"/>
				<g>
					<path class="st8" d="M918.4,12.1c0-2.4-3.8-2.4-3.8,0C914.6,14.6,918.4,14.6,918.4,12.1z"/>
					<path class="st8" d="M915.3,16.3c0-4-6.2-4-6.2,0C909.1,20.3,915.3,20.3,915.3,16.3z"/>
				</g>
			</g>
			<g>
				<path class="st6" d="M805.8,86c-4.5,0-8.2-3.7-8.2-8.2V12.5c0-4.6,3.7-8.2,8.2-8.2h1.8c4.5,0,8.2,3.7,8.2,8.2v65.3
					c0,4.6-3.7,8.2-8.2,8.2H805.8z"/>
				<path class="st7" d="M797.5,77.8c0,4.6,3.7,8.2,8.2,8.2h1.8c4.5,0,8.2-3.7,8.2-8.2V12.5c0,0-6.1,44.5-7.5,55.2
					C806.9,78.4,797.5,77.8,797.5,77.8z"/>
				<g>
					<path class="st8" d="M809.4,12.1c0-2.4-3.8-2.4-3.8,0C805.6,14.6,809.4,14.6,809.4,12.1z"/>
					<path class="st8" d="M806.3,16.3c0-4-6.2-4-6.2,0C800.1,20.3,806.3,20.3,806.3,16.3z"/>
				</g>
			</g>
			<g>
				<path class="st6" d="M696.8,86c-4.6,0-8.2-3.7-8.2-8.2V12.5c0-4.6,3.7-8.2,8.2-8.2h1.8c4.6,0,8.2,3.7,8.2,8.2v65.3
					c0,4.6-3.7,8.2-8.2,8.2H696.8z"/>
				<path class="st7" d="M688.5,77.8c0,4.6,3.7,8.2,8.2,8.2h1.8c4.6,0,8.2-3.7,8.2-8.2V12.5c0,0-6.1,44.5-7.5,55.2
					C698,78.4,688.5,77.8,688.5,77.8z"/>
				<g>
					<path class="st8" d="M700.4,12.1c0-2.4-3.8-2.4-3.8,0C696.6,14.6,700.4,14.6,700.4,12.1z"/>
					<path class="st8" d="M697.3,16.3c0-4-6.2-4-6.2,0C691.1,20.3,697.3,20.3,697.3,16.3z"/>
				</g>
			</g>
			<g>
				<path class="st6" d="M587.8,86c-4.5,0-8.2-3.7-8.2-8.2V12.5c0-4.6,3.7-8.2,8.2-8.2h1.8c4.5,0,8.2,3.7,8.2,8.2v65.3
					c0,4.6-3.7,8.2-8.2,8.2H587.8z"/>
				<path class="st7" d="M579.6,77.8c0,4.6,3.7,8.2,8.2,8.2h1.8c4.5,0,8.2-3.7,8.2-8.2V12.5c0,0-6.1,44.5-7.5,55.2
					C589,78.4,579.6,77.8,579.6,77.8z"/>
				<g>
					<path class="st8" d="M591.4,12.1c0-2.4-3.8-2.4-3.8,0C587.6,14.6,591.4,14.6,591.4,12.1z"/>
					<path class="st8" d="M588.3,16.3c0-4-6.2-4-6.2,0C582.2,20.3,588.3,20.3,588.3,16.3z"/>
				</g>
			</g>
			<g>
				<path class="st6" d="M478.8,86c-4.6,0-8.2-3.7-8.2-8.2V12.5c0-4.6,3.7-8.2,8.2-8.2h1.8c4.6,0,8.2,3.7,8.2,8.2v65.3
					c0,4.6-3.7,8.2-8.2,8.2H478.8z"/>
				<path class="st7" d="M470.6,77.8c0,4.6,3.7,8.2,8.2,8.2h1.8c4.6,0,8.2-3.7,8.2-8.2V12.5c0,0-6.1,44.5-7.5,55.2
					C480,78.4,470.6,77.8,470.6,77.8z"/>
				<g>
					<path class="st8" d="M482.4,12.1c0-2.4-3.8-2.4-3.8,0C478.7,14.6,482.4,14.6,482.4,12.1z"/>
					<path class="st8" d="M479.4,16.3c0-4-6.2-4-6.2,0C473.2,20.3,479.4,20.3,479.4,16.3z"/>
				</g>
			</g>
		</g>
	</g>
</g>
</svg>
